Coordinates
version=1
nRows=6
nColumns=63
inDegrees=yes

Units are S.I. units (second, meters, Newtons, ...)
If the header above contains a line with 'inDegrees', this indicates whether rotational values are in degrees (yes) or radians (no).

endheader
time	pelvis_tilt	pelvis_list	pelvis_rotation	pelvis_tx	pelvis_ty	pelvis_tz	hip_flexion_r	hip_adduction_r	hip_rotation_r	knee_angle_r	knee_angle_r_beta	ankle_angle_r	subtalar_angle_r	mtp_angle_r	hip_flexion_l	hip_adduction_l	hip_rotation_l	knee_angle_l	knee_angle_l_beta	ankle_angle_l	subtalar_angle_l	mtp_angle_l	L5_S1_Flex_Ext	L5_S1_Lat_Bending	L5_S1_axial_rotation	L4_L5_Flex_Ext	L4_L5_Lat_Bending	L4_L5_axial_rotation	L3_L4_Flex_Ext	L3_L4_Lat_Bending	L3_L4_axial_rotation	L2_L3_Flex_Ext	L2_L3_Lat_Bending	L2_L3_axial_rotation	L1_L2_Flex_Ext	L1_L2_Lat_Bending	L1_L2_axial_rotation	L1_T12_Flex_Ext	L1_T12_Lat_Bending	L1_T12_axial_rotation	Abs_r3	Abs_r2	Abs_r1	Abs_t1	Abs_t2	neck_flexion	neck_bending	neck_rotation	arm_flex_r	arm_add_r	arm_rot_r	elbow_flex_r	pro_sup_r	wrist_flex_r	wrist_dev_r	arm_flex_l	arm_add_l	arm_rot_l	elbow_flex_l	pro_sup_l	wrist_flex_l	wrist_dev_l
      8.10169492	      2.79333068	     -2.22931951	    112.71674500	      0.30849541	      0.58493391	      0.95242110	      8.68633190	     -3.04542275	    -12.77081298	     17.96851317	      0.31360972	     31.62644644	      8.93285985	      0.00000000	      5.08353417	      1.79780630	    -10.19936007	      9.87295984	      0.17231566	     27.14343298	     12.71419906	      0.00000000	      0.13274030	      0.26500088	      0.10388635	      0.24651202	      0.35245117	      0.11037924	      0.21807904	      0.64432314	      0.11037924	      0.15170889	      0.64432314	      0.09090055	      0.12326265	      0.54038979	      0.08440766	      0.07584781	      0.41048636	      0.07791476	      0.94815071	      2.99774293	      0.57778469	      0.00000000	      0.00000000	     27.30783271	     -0.90354596	      2.85571488	     -3.54307095	    -19.63810149	     29.30270212	     25.23555188	     72.18101102	    -11.88690243	    -11.37469112	      9.13131088	    -10.14631206	    160.34669374	      2.42529545	      4.19836453	    -16.50566445	    -11.58154189
      8.11864407	      2.84279920	     -2.16929457	    113.08237451	      0.30768479	      0.58508542	      0.95210094	      8.53984622	     -3.06684129	    -13.42188781	     17.86643998	      0.31182820	     31.87536964	      9.46703685	      0.00000000	      5.01614813	      1.76668478	    -10.14981917	      9.83997112	      0.17173989	     27.22317892	     13.04790010	      0.00000000	      0.12552978	      0.26853865	      0.02964504	      0.23312135	      0.35715641	      0.03149786	      0.20623287	      0.65292488	      0.03149786	      0.14346798	      0.65292488	      0.02593941	      0.11656695	      0.54760402	      0.02408660	      0.07172772	      0.41596638	      0.02223378	      0.89664665	      3.03776296	      0.16487683	      0.00000000	      0.00000000	     27.15122884	     -1.09239078	      2.36989505	     -3.83784020	    -19.89011708	     27.11874563	     25.51050668	     68.85179968	     -9.94462104	    -10.62441315	      8.97266636	    -11.08157818	    151.06345675	      3.40348703	      3.89605064	    -10.30743811	    -13.16418689
      8.13559322	      2.95739389	     -2.12179483	    113.36801362	      0.30704008	      0.58504056	      0.95175998	      8.48246105	     -2.97798735	    -13.71390058	     17.82623014	      0.31112641	     32.02761805	      9.56097629	      0.00000000	      5.01929007	      1.66318997	    -10.08195163	      9.85616421	      0.17202252	     27.42314379	     13.29182010	      0.00000000	      0.12489537	      0.27400810	     -0.01838557	      0.23194319	      0.36443077	     -0.01953467	      0.20519060	      0.66622328	     -0.01953467	      0.14274292	      0.66622328	     -0.01608737	      0.11597784	      0.55875731	     -0.01493827	      0.07136521	      0.42443854	     -0.01378918	      0.89211513	      3.09963438	     -0.10225502	      0.00000000	      0.00000000	     27.09734209	     -1.35302610	      1.66850825	     -4.26236085	    -20.41368179	     24.49688710	     26.12654279	     66.73079064	     -8.14074085	     -8.72315291	      8.70778201	    -12.25067193	    142.80134049	      4.34367890	      3.00779141	     -4.32529510	    -14.15615763
      8.15254237	      2.88890787	     -2.13085923	    113.82209285	      0.30654616	      0.58494263	      0.95128143	      8.35731186	     -3.08770445	    -14.13314082	     17.78518960	      0.31041012	     32.27046539	      9.59638929	      0.00000000	      5.00425478	      1.73951740	    -10.05187326	      9.82543077	      0.17148612	     27.62062294	     13.82139758	      0.00000000	      0.12039728	      0.25020842	     -0.13707946	      0.22358979	      0.33277719	     -0.14564692	      0.19780069	      0.60835674	     -0.14564692	      0.13760205	      0.60835674	     -0.11994452	      0.11180091	      0.51022500	     -0.11137706	      0.06879501	      0.38757284	     -0.10280959	      0.85998573	      2.83040765	     -0.76239482	      0.00000000	      0.00000000	     27.08668707	     -0.74397590	      1.71113942	     -4.85589935	    -20.52196256	     19.72488341	     26.86422299	     68.36688660	     -7.23401292	     -5.75788730	      8.20919481	    -13.98183794	    130.91521324	      6.38468868	      5.05746249	     -1.68305263	    -14.81227762
      8.16949153	      2.82852852	     -2.19119211	    114.23639912	      0.30609558	      0.58460781	      0.95076249	      8.31301825	     -3.18183670	    -14.30487825	     17.82182704	      0.31104956	     32.44784014	      9.27259789	      0.00000000	      5.02792139	      1.84489590	     -9.90526711	      9.71951984	      0.16963762	     27.87376350	     14.11932925	      0.00000000	      0.11831387	      0.22819450	     -0.24010936	      0.21972068	      0.30349868	     -0.25511620	      0.19437785	      0.55483210	     -0.25511620	      0.13522092	      0.55483210	     -0.21009569	      0.10986626	      0.46533422	     -0.19508886	      0.06760454	      0.35347328	     -0.18008202	      0.84510411	      2.58138179	     -1.33541625	      0.00000000	      0.00000000	     27.15986886	     -0.32199035	      1.79756930	     -5.51159740	    -20.70438965	     14.98893617	     27.49767003	     70.65429920	     -6.45406933	     -2.62193584	      7.29618984	    -15.40830848	    125.66511109	      6.61635561	      5.38299994	      1.29899517	    -14.85230092
      8.18644068	      2.75851152	     -2.21862049	    114.70375625	      0.30559373	      0.58430088	      0.95034974	      8.24816231	     -3.27997154	    -14.52060399	     17.91357263	      0.31265082	     32.51400801	      8.79429491	      0.00000000	      5.04328064	      1.95258845	     -9.59201835	      9.60910442	      0.16771051	     28.16353435	     14.34932200	      0.00000000	      0.10759779	      0.20613902	     -0.34715773	      0.19981986	      0.27416489	     -0.36885509	      0.17677241	      0.50120640	     -0.36885509	      0.12297352	      0.50120640	     -0.30376302	      0.09991531	      0.42035868	     -0.28206566	      0.06148138	      0.31930934	     -0.26036830	      0.76856027	      2.33188578	     -1.93078717	      0.00000000	      0.00000000	     27.22672931	     -0.00148467	      1.80228378	     -5.85822665	    -21.32758963	     13.32745175	     27.63403789	     69.86388552	     -6.46294835	      0.06969293	      6.28583326	    -16.68819856	    123.90841397	      6.24222534	      4.64928785	      2.97529656	    -14.68871856
